<?xml version="1.0" standalone="no"?><!DOCTYPE svg PUBLIC "-//W3C//DTD SVG 1.1//EN" "http://www.w3.org/Graphics/SVG/1.1/DTD/svg11.dtd"><svg t="1699546102341" class="icon" viewBox="0 0 1024 1024" version="1.1" xmlns="http://www.w3.org/2000/svg" p-id="1457" xmlns:xlink="http://www.w3.org/1999/xlink" width="200" height="200"><path d="M512 1024C229.229714 1024 0 794.770286 0 512S229.229714 0 512 0s512 229.229714 512 512-229.229714 512-512 512z m0-927.98781C282.258286 96.01219 96.01219 282.258286 96.01219 512c0 107.446857 41.081905 205.04381 107.934477 278.869333 60.269714-29.135238 38.13181-4.87619 116.955428-37.351619 80.676571-33.133714 99.791238-44.714667 99.791238-44.714666l0.75581-76.434286s-30.208-22.942476-39.594667-94.866286c-18.919619 5.436952-25.161143-22.016-26.282666-39.497143-0.999619-16.896-10.922667-69.632 12.117333-64.877714-4.705524-35.206095-8.094476-66.950095-6.436572-83.772952 5.778286-59.050667 63.097905-120.758857 151.356953-125.269334 103.838476 4.510476 144.969143 66.169905 150.723047 125.220572 1.682286 16.822857-2.023619 48.615619-6.729142 83.748571 23.064381-4.681143 13.04381 47.957333 11.922285 64.853334-1.024 17.481143-7.41181 44.836571-26.258285 39.424-9.435429 71.899429-39.643429 94.671238-39.643429 94.671238l0.707048 76.04419s19.090286 10.825143 99.766857 43.983238c78.823619 32.451048 56.710095 9.630476 116.955428 38.838857 66.876952-73.801143 107.958857-171.422476 107.958857-278.869333 0-229.741714-186.270476-415.98781-416.01219-415.98781z" fill="" p-id="1458"></path></svg>